Coordinates
version=1
nRows=10
nColumns=28
inDegrees=yes

Units are S.I. units (second, meters, Newtons, ...)
Angles are in degrees.

endheader
time	pelvis_tilt	pelvis_list	pelvis_rotation	pelvis_tx	pelvis_ty	pelvis_tz	hip_flexion_r	hip_adduction_r	hip_rotation_r	knee_angle_r	ankle_angle_r	subtalar_angle_r	mtp_angle_r	hip_flexion_l	hip_adduction_l	hip_rotation_l	knee_angle_l	socket_flexion	socket_adduction	socket_rotation	socket_tx	socket_ty	socket_tz	foot_flex	lumbar_extension	lumbar_bending	lumbar_rotation
      0.63333333	      2.05083127	      4.59632341	     13.58411560	     -0.04313404	      1.00448038	      0.27931566	     21.07784374	     -7.25522068	    -13.70997625	     -7.34194804	     19.10227410	    -12.47387416	    -11.06705193	    -23.95475944	      2.58542563	      9.25127542	     -4.79120248	      2.63562080	     -0.31283261	     12.20855590	      0.00885854	     -0.00344822	     -0.00980857	      9.57228294	    -15.00352580	     -3.06840958	    -12.53804519
      0.63750000	      2.15970244	      4.54859256	     13.67181495	     -0.03686385	      1.00370267	      0.27937602	     21.26146771	     -7.20457586	    -13.57861376	     -8.34128758	     18.63789054	    -12.48860502	    -10.95373854	    -24.12872687	      2.44625441	      9.26407300	     -5.02747553	      2.86002706	     -0.31008667	     12.18726794	      0.01019948	     -0.00321800	     -0.01003427	      9.54968222	    -15.09230547	     -2.88080939	    -12.58886548
      0.64166667	      2.25035215	      4.47453755	     13.68382196	     -0.03044383	      1.00284103	      0.27942770	     21.48368428	     -7.11368851	    -13.37402742	     -9.37332185	     18.26854252	    -12.50150592	    -10.76814626	    -24.34180704	      2.34620876	      9.24000360	     -5.23777414	      3.07763892	     -0.37353981	     12.14996252	      0.01119196	     -0.00305489	     -0.00986868	      9.47540237	    -15.12390185	     -2.66763932	    -12.65815823
      0.64583333	      2.31234801	      4.42614354	     13.63154320	     -0.02387105	      1.00193054	      0.27956804	     21.77551203	     -7.04309792	    -13.14153210	    -10.50388220	     17.88031398	    -12.48599874	    -10.42419550	    -24.58591719	      2.29771590	      9.12500760	     -5.42202271	      3.26779141	     -0.40285497	     12.06573842	      0.01168770	     -0.00289122	     -0.00960640	      9.39321571	    -15.09742451	     -2.46248238	    -12.70775607
      0.65000000	      2.39463644	      4.32599166	     13.58439641	     -0.01746358	      1.00112139	      0.27975106	     22.03422941	     -6.90208147	    -12.87284752	    -11.58141446	     17.48164388	    -12.43538666	    -10.12053452	    -24.74530637	      2.24412207	      9.07964485	     -5.66714270	      3.52609384	     -0.49915112	     11.98789727	      0.01293819	     -0.00265405	     -0.00908451	      9.26433071	    -15.11999282	     -2.24479492	    -12.72107710
      0.65416667	      1.94760629	      4.60649955	     13.57017292	     -0.01045631	      0.99966019	      0.27938591	     22.99462850	     -7.46869449	    -13.08441301	    -13.10764984	     15.22406582	    -12.13280300	      0.34966143	    -24.21869044	      3.00191104	      8.60102708	     -6.11024735	      4.02154522	     -0.92153540	     12.50407112	      0.01705035	     -0.00139050	     -0.00633072	      9.31237065	    -14.54155401	     -2.56446003	    -12.58471557
      0.65833333	      2.12357687	      4.46882318	     13.50545899	     -0.00404430	      0.99900365	      0.27979077	     23.09269263	     -7.23026084	    -12.75280868	    -14.06755995	     14.80426295	    -12.09147715	      0.38434089	    -24.43777849	      2.78610033	      8.56388166	     -6.35992293	      4.25710059	     -0.87265753	     12.34624685	      0.01796019	     -0.00137276	     -0.00681892	      8.94680873	    -14.66271752	     -2.28566696	    -12.66804957
      0.66250000	      2.27495908	      4.31739406	     13.42690561	      0.00252372	      0.99834356	      0.28005046	     23.23758424	     -7.00957172	    -12.51080921	    -15.09919385	     14.37307186	    -12.11890304	      0.45221328	    -24.67349350	      2.64774585	      8.49614451	     -6.61332978	      4.52194814	     -0.91742550	     12.18067292	      0.01863261	     -0.00126757	     -0.00647723	      8.77198918	    -14.72146262	     -1.98080671	    -12.69032459
      0.66666667	      2.38136192	      4.18490675	     13.47950839	      0.00902340	      0.99778907	      0.28005196	     23.29925233	     -6.84165069	    -12.19955612	    -15.95011932	     14.06286851	    -12.09260893	      0.48946428	    -24.81173191	      2.55005437	      8.57108238	     -6.91411479	      4.84240626	     -1.02196782	     12.13946122	      0.01969423	     -0.00111147	     -0.00560925	      8.57561584	    -14.74767760	     -1.65242531	    -12.66945568
      0.67083333	      2.52675047	      4.03473008	     13.26226166	      0.01572917	      0.99715758	      0.28062716	     23.54375518	     -6.60025118	    -12.06094130	    -17.14071674	     13.53601158	    -12.16221318	      0.61450369	    -24.99940632	      2.44618347	      8.36384300	     -7.20228218	      5.13487498	     -1.02250247	     11.84097437	      0.02036443	     -0.00091990	     -0.00566037	      8.30379390	    -14.78002575	     -1.43334038	    -12.65591535
